<?xml version="1.0" encoding="UTF-8" standalone="no"?>
<svg
   xmlns:dc="http://purl.org/dc/elements/1.1/"
   xmlns:cc="http://creativecommons.org/ns#"
   xmlns:rdf="http://www.w3.org/1999/02/22-rdf-syntax-ns#"
   xmlns:svg="http://www.w3.org/2000/svg"
   xmlns="http://www.w3.org/2000/svg"
   viewBox="0 0 800 261.33334"
   height="261.33334"
   width="800"
   xml:space="preserve"
   id="svg2"
   version="1.1"><metadata
     id="metadata8"><rdf:RDF><cc:Work
         rdf:about=""><dc:format>image/svg+xml</dc:format><dc:type
           rdf:resource="http://purl.org/dc/dcmitype/StillImage" /></cc:Work></rdf:RDF></metadata><defs
     id="defs6"><clipPath
       id="clipPath18"
       clipPathUnits="userSpaceOnUse"><path
         id="path16"
         d="M 0,196 H 600 V 0 H 0 Z" /></clipPath></defs><g
     transform="matrix(1.3333333,0,0,-1.3333333,0,261.33333)"
     id="g10"><g
       id="g12"><g
         clip-path="url(#clipPath18)"
         id="g14"><g
           transform="translate(98.26,120.7197)"
           id="g20"><path
             id="path22"
             style="fill:#d10233;fill-opacity:1;fill-rule:evenodd;stroke:none"
             d="M 0,0 H 11.76 V -13.08 C 9.48,-6.96 5.76,-2.58 0,0 M -86.1,62.28 H 40.86 V -0.06 H 26.22 v -1.2 c 0,-8.34 0.06,-16.74 0,-25.08 0,-1.68 -0.12,-3.36 -0.3,-4.98 -0.48,-4.32 -2.82,-6.3 -7.2,-6.18 -3.78,0.12 -6.24,2.4 -6.54,6.18 -0.24,2.28 -0.18,4.62 -0.36,6.96 -0.18,2.64 -0.3,5.34 -0.84,7.92 -2.04,10.02 -9.12,16.08 -19.32,16.38 -8.58,0.24 -17.1,0.06 -25.62,0.12 -0.18,0 -0.42,-0.12 -0.6,-0.18 v -48.42 h 1.5 c 6.42,0 12.84,0 19.26,0.06 2.28,0 4.62,0.18 6.96,0.48 2.64,0.3 5.22,1.08 7.74,2.46 -3.9,3.84 -5.16,8.64 -5.64,14.1 -1.56,-2.34 -3.42,-3.9 -5.82,-4.2 -2.94,-0.42 -5.94,-0.36 -9,-0.54 v 23.76 c 2.04,0 3.96,0.12 5.82,-0.06 6.9,-0.6 10.2,-4.02 10.56,-10.86 0.18,-3.3 -0.06,-6.6 0.24,-9.84 0.66,-7.5 4.62,-13.14 12.3,-15.24 6.18,-1.74 12.48,-1.74 18.78,-0.18 5.64,1.38 9.66,4.62 11.7,10.14 l -0.3,-2.58 c -5.94,-26.22 -31.5,-46.02 -62.16,-46.02 -30.66,0 -56.28,19.8 -62.16,46.02 l -1.26,11.22 h -0.06 v 0.42 49.2 L -46.8,9.3 c 2.34,-0.6 4.74,0.78 5.34,3.12 0.66,2.34 -0.72,4.74 -3.06,5.34 L -86.1,28.8 v 5.7 l 39.3,-10.44 c 2.34,-0.66 4.74,0.72 5.34,3.06 0.66,2.34 -0.72,4.74 -3.06,5.34 l -41.58,11.1 v 5.64 l 39.3,-10.56 c 2.34,-0.6 4.74,0.78 5.34,3.12 0.66,2.34 -0.72,4.74 -3.06,5.4 l -41.58,11.1 z" /></g><g
           transform="translate(21.82,20.7598)"
           id="g24"><path
             id="path26"
             style="fill:#1b1918;fill-opacity:1;fill-rule:evenodd;stroke:none"
             d="m 0,0 h -1.5 v -9.66 h -1.2 v 3.42 C -2.88,-6.36 -3,-6.48 -3.18,-6.6 -3.36,-6.72 -3.6,-6.78 -3.78,-6.84 -4.02,-6.96 -4.26,-6.96 -4.5,-7.02 c -0.24,-0.06 -0.54,-0.12 -0.78,-0.12 -0.6,0 -1.08,0.12 -1.44,0.3 -0.42,0.24 -0.72,0.48 -1.02,0.84 -0.24,0.36 -0.48,0.72 -0.6,1.14 -0.18,0.48 -0.24,0.9 -0.36,1.38 0.36,0.06 0.6,0.12 0.84,0.18 0.24,0.18 0.42,0.24 0.54,0.42 0.12,0.12 0.24,0.3 0.3,0.48 0.06,0.12 0.06,0.3 0.06,0.54 v 0.36 c 0,0.18 0,0.3 -0.12,0.48 -0.06,0.18 -0.12,0.3 -0.18,0.48 -0.12,0.24 -0.18,0.36 -0.36,0.54 h -2.04 v 1.08 l 9.66,0 z m -6.3,0 c 0.12,-0.24 0.3,-0.54 0.36,-0.96 0.12,-0.36 0.18,-0.66 0.18,-1.02 0,-0.24 -0.06,-0.42 -0.12,-0.66 C -5.94,-2.88 -6,-3.06 -6.18,-3.3 -6.3,-3.54 -6.42,-3.66 -6.66,-3.84 -6.84,-4.02 -7.08,-4.08 -7.38,-4.2 c 0.12,-0.36 0.18,-0.6 0.36,-0.84 0.12,-0.24 0.3,-0.42 0.48,-0.6 0.12,-0.12 0.36,-0.24 0.6,-0.3 C -5.7,-6 -5.46,-6 -5.22,-6 c 0.24,0 0.48,0 0.72,0.06 0.24,0.06 0.48,0.12 0.72,0.3 0.18,0.06 0.42,0.24 0.6,0.36 0.18,0.12 0.3,0.3 0.48,0.48 V 0 Z M 5.22,0 H 2.28 V -9.66 H 1.14 V 0 H 0 V 1.08 H 5.22 Z M 2.1,1.08 H 1.08 L 0.48,2.1 C 0.24,2.64 0,3.06 -0.24,3.36 -0.48,3.66 -0.66,3.9 -0.9,4.08 -1.08,4.26 -1.32,4.38 -1.5,4.44 h -0.6 -1.38 v 1.2 h 1.32 c 0.24,0 0.54,-0.06 0.72,-0.06 C -1.2,5.52 -1.02,5.46 -0.78,5.34 -0.54,5.22 -0.36,5.04 -0.18,4.8 0,4.62 0.24,4.38 0.48,4.02 0.66,3.66 0.9,3.3 1.14,2.88 1.44,2.34 1.74,1.8 2.04,1.2 Z M 14.64,0 h -1.5 v -9.66 h -1.2 V 0 H 8.7 V -5.58 -5.82 C 8.7,-5.94 8.7,-6 8.64,-6.12 8.58,-6.18 8.52,-6.3 8.46,-6.36 8.4,-6.42 8.28,-6.42 8.22,-6.42 c -0.18,0 -0.3,0 -0.48,0.12 C 7.62,-6.24 7.44,-6.12 7.26,-6 7.14,-5.88 6.96,-5.7 6.78,-5.52 6.66,-5.34 6.54,-5.16 6.42,-4.98 6.3,-4.8 6.18,-4.62 6.12,-4.44 6.06,-4.32 6,-4.08 6,-4.02 c 0,0.18 0.06,0.24 0.12,0.3 0.06,0.12 0.12,0.12 0.24,0.18 0.06,0 0.24,0.06 0.36,0.06 H 7.26 7.5 V 0 H 5.22 v 1.08 h 9.42 z m 3,-3.72 c -0.24,0 -0.42,0.12 -0.6,0.24 -0.12,0.18 -0.24,0.36 -0.24,0.6 0,0.18 0.12,0.36 0.24,0.54 0.18,0.18 0.36,0.24 0.6,0.24 0.18,0 0.36,-0.06 0.54,-0.24 0.18,-0.18 0.24,-0.36 0.24,-0.54 0,-0.24 -0.06,-0.42 -0.24,-0.6 C 18,-3.6 17.82,-3.72 17.64,-3.72 m 0,-6.12 c -0.24,0 -0.42,0.12 -0.6,0.3 -0.12,0.12 -0.24,0.3 -0.24,0.54 0,0.24 0.12,0.42 0.24,0.54 0.18,0.18 0.36,0.24 0.6,0.24 0.18,0 0.36,-0.06 0.54,-0.24 0.18,-0.12 0.24,-0.3 0.24,-0.54 0,-0.24 -0.06,-0.42 -0.24,-0.54 -0.18,-0.18 -0.36,-0.3 -0.54,-0.3 M 37.8,0 h -7.68 v -2.82 h 0.06 c 0.24,0.36 0.54,0.6 0.9,0.78 0.36,0.24 0.78,0.36 1.2,0.36 0.36,0 0.66,-0.12 0.96,-0.24 0.3,-0.18 0.54,-0.36 0.78,-0.6 0.18,-0.24 0.42,-0.54 0.48,-0.84 0.18,-0.36 0.18,-0.72 0.18,-1.08 0,-0.42 0,-0.9 -0.24,-1.2 -0.12,-0.42 -0.3,-0.78 -0.54,-1.08 -0.24,-0.24 -0.48,-0.54 -0.78,-0.78 -0.36,-0.24 -0.66,-0.42 -0.96,-0.6 l -0.6,1.14 c 0.06,0 0.18,0.12 0.3,0.18 0.18,0.06 0.3,0.18 0.48,0.36 0.12,0.06 0.3,0.24 0.42,0.36 0.12,0.12 0.3,0.3 0.42,0.48 0.12,0.18 0.24,0.36 0.24,0.54 0.12,0.18 0.18,0.42 0.18,0.66 0,0.18 -0.06,0.42 -0.12,0.54 -0.06,0.24 -0.18,0.42 -0.3,0.54 -0.06,0.12 -0.24,0.24 -0.36,0.3 -0.18,0.12 -0.36,0.18 -0.54,0.18 -0.24,0 -0.48,-0.12 -0.72,-0.24 C 31.32,-3.18 31.08,-3.3 30.9,-3.54 30.72,-3.72 30.54,-3.96 30.42,-4.14 30.3,-4.38 30.18,-4.62 30.12,-4.8 V -9.66 H 28.98 V -6.9 H 28.92 C 28.86,-6.96 28.8,-7.02 28.68,-7.08 28.56,-7.2 28.44,-7.26 28.26,-7.38 28.08,-7.44 27.96,-7.5 27.72,-7.56 27.54,-7.62 27.24,-7.68 27,-7.68 c -0.36,0 -0.78,0.12 -1.14,0.24 -0.36,0.24 -0.66,0.42 -0.9,0.72 -0.3,0.3 -0.54,0.6 -0.66,0.96 -0.12,0.36 -0.18,0.84 -0.18,1.2 0,0.48 0.06,0.84 0.18,1.2 0.12,0.3 0.36,0.6 0.6,0.9 0.18,0.24 0.48,0.42 0.78,0.6 0.3,0.12 0.66,0.18 1.08,0.18 0.24,0 0.48,-0.06 0.72,-0.12 0.18,0 0.42,-0.12 0.54,-0.24 0.24,-0.06 0.42,-0.18 0.54,-0.24 0.18,-0.12 0.24,-0.24 0.36,-0.3 h 0.06 V 0 h -6 V 1.08 H 37.8 Z M 26.94,-2.82 c -0.3,0 -0.54,0 -0.72,-0.18 -0.24,-0.06 -0.42,-0.24 -0.54,-0.36 -0.18,-0.24 -0.24,-0.42 -0.3,-0.66 -0.12,-0.18 -0.18,-0.36 -0.18,-0.6 0,-0.24 0.06,-0.48 0.18,-0.72 0.06,-0.24 0.18,-0.42 0.3,-0.6 0.18,-0.18 0.36,-0.3 0.54,-0.48 0.24,-0.06 0.48,-0.12 0.78,-0.12 0.18,0 0.42,0.06 0.66,0.12 0.18,0.06 0.42,0.24 0.6,0.42 0.24,0.18 0.42,0.42 0.54,0.72 0.12,0.3 0.18,0.66 0.18,1.02 v 0.36 c -0.12,0.12 -0.24,0.3 -0.42,0.42 -0.12,0.18 -0.3,0.24 -0.54,0.36 -0.12,0.06 -0.3,0.18 -0.48,0.24 -0.24,0.06 -0.42,0.06 -0.6,0.06 M 49.14,0 h -2.88 v -9.66 h -1.2 v 4.02 h -3.9 v -0.78 c 0,-0.18 0,-0.3 -0.06,-0.42 0,-0.12 0,-0.24 -0.06,-0.3 -0.06,-0.06 -0.12,-0.12 -0.18,-0.18 -0.06,-0.06 -0.18,-0.06 -0.3,-0.06 -0.12,0 -0.24,0.06 -0.42,0.12 -0.18,0.06 -0.3,0.18 -0.48,0.3 -0.12,0.12 -0.3,0.24 -0.48,0.42 -0.12,0.18 -0.24,0.36 -0.36,0.54 -0.12,0.12 -0.24,0.36 -0.3,0.48 -0.06,0.18 -0.12,0.36 -0.12,0.48 0,0.12 0,0.18 0.06,0.24 0.06,0.06 0.12,0.12 0.12,0.18 0.12,0 0.18,0 0.24,0.06 h 0.36 0.78 V 0 H 37.8 v 1.08 h 11.34 z m -7.98,-4.56 h 3.9 V 0 h -3.9 z m 6.48,8.94 c -0.24,0.24 -0.48,0.36 -0.66,0.48 -0.12,0.12 -0.36,0.18 -0.6,0.18 -0.36,0 -0.72,-0.12 -0.9,-0.36 -0.24,-0.24 -0.36,-0.66 -0.36,-1.08 0,-0.24 0,-0.42 0.06,-0.66 0.06,-0.18 0.12,-0.36 0.18,-0.6 0.12,-0.24 0.24,-0.42 0.3,-0.6 0.18,-0.24 0.24,-0.42 0.42,-0.66 h -1.2 c -0.3,0.48 -0.48,0.84 -0.6,1.26 -0.18,0.48 -0.24,0.9 -0.24,1.32 0,0.36 0.06,0.72 0.18,1.02 0.12,0.3 0.3,0.6 0.54,0.78 0.18,0.24 0.42,0.42 0.72,0.54 0.3,0.06 0.6,0.12 0.9,0.12 0.42,0 0.78,-0.06 1.08,-0.24 C 47.82,5.7 48.12,5.46 48.42,5.1 Z M 60,1.08 V 0 h -1.5 v -9.3 c 0.12,-0.06 0.18,-0.06 0.3,-0.06 0.24,-0.12 0.48,-0.18 0.66,-0.42 0.18,-0.12 0.36,-0.3 0.48,-0.54 0.06,-0.3 0.12,-0.54 0.12,-0.78 0,-0.3 -0.06,-0.6 -0.18,-0.9 -0.12,-0.24 -0.3,-0.48 -0.54,-0.66 -0.24,-0.24 -0.54,-0.42 -0.96,-0.54 -0.3,-0.06 -0.78,-0.18 -1.2,-0.18 -0.6,0 -1.08,0.12 -1.44,0.24 -0.48,0.18 -0.84,0.36 -1.2,0.54 -0.3,0.24 -0.6,0.48 -0.9,0.72 -0.24,0.3 -0.48,0.54 -0.66,0.78 l 0.66,0.78 0.78,-0.78 c 0.24,-0.24 0.54,-0.42 0.78,-0.6 0.3,-0.18 0.6,-0.3 0.84,-0.42 0.3,-0.06 0.72,-0.12 1.08,-0.12 0.3,0 0.6,0.06 0.84,0.06 0.24,0.12 0.42,0.18 0.6,0.3 0.12,0.06 0.24,0.24 0.3,0.36 0.06,0.12 0.06,0.24 0.06,0.42 0,0.24 -0.06,0.42 -0.24,0.54 -0.18,0.18 -0.42,0.24 -0.78,0.24 -0.18,0 -0.42,0 -0.66,-0.12 -0.3,-0.06 -0.6,-0.18 -0.84,-0.36 l -0.48,0.96 c 0.3,0.18 0.66,0.3 1.02,0.42 0.12,0.06 0.24,0.06 0.36,0.06 v 4.56 h -4.14 c -0.24,-0.18 -0.6,-0.3 -0.96,-0.3 v -0.06 c 0.48,-0.72 1.02,-1.38 1.56,-2.04 0.54,-0.6 1.2,-1.2 1.86,-1.74 l -0.78,-0.9 c -0.36,0.3 -0.78,0.66 -1.14,1.02 -0.36,0.3 -0.72,0.72 -1.02,1.08 -0.36,0.36 -0.66,0.78 -0.96,1.14 -0.24,0.42 -0.54,0.78 -0.78,1.14 -0.18,0.36 -0.42,0.72 -0.6,1.08 -0.18,0.36 -0.36,0.66 -0.48,1.02 l 1.02,0.48 c 0.06,-0.18 0.12,-0.42 0.24,-0.48 0.06,-0.18 0.18,-0.3 0.3,-0.36 0.06,-0.12 0.18,-0.12 0.3,-0.18 0.06,-0.06 0.18,-0.06 0.24,-0.06 0.36,0 0.6,0.12 0.78,0.36 0.18,0.3 0.24,0.6 0.24,1.08 0,0.24 0,0.42 -0.06,0.72 -0.06,0.24 -0.18,0.48 -0.18,0.66 -0.12,0.24 -0.18,0.42 -0.24,0.6 C 52.38,-0.3 52.26,-0.12 52.2,0 H 49.14 V 1.08 Z M 57.3,0 h -3.78 c 0.18,-0.42 0.3,-0.84 0.42,-1.32 0.12,-0.42 0.18,-0.84 0.18,-1.26 0,-0.24 0,-0.42 -0.06,-0.6 C 54,-3.36 54,-3.6 53.94,-3.72 v -0.06 h 3.36 z m 19.5,0 h -6.06 v -2.82 c 0.24,0.36 0.54,0.6 0.9,0.78 0.36,0.24 0.78,0.36 1.2,0.36 0.36,0 0.72,-0.12 0.96,-0.24 0.3,-0.18 0.54,-0.36 0.78,-0.6 0.24,-0.24 0.36,-0.54 0.54,-0.84 0.06,-0.36 0.18,-0.72 0.18,-1.08 0,-0.42 -0.12,-0.9 -0.24,-1.2 -0.18,-0.42 -0.36,-0.78 -0.6,-1.08 -0.24,-0.24 -0.54,-0.54 -0.84,-0.78 -0.3,-0.24 -0.6,-0.42 -0.84,-0.6 l -0.66,1.14 c 0.12,0 0.18,0.12 0.36,0.18 0.12,0.06 0.3,0.18 0.42,0.36 0.12,0.06 0.3,0.24 0.42,0.36 0.18,0.12 0.3,0.3 0.42,0.48 0.06,0.18 0.18,0.36 0.3,0.54 0,0.18 0.06,0.42 0.06,0.66 0,0.18 -0.06,0.42 -0.06,0.54 -0.06,0.24 -0.18,0.42 -0.24,0.54 -0.18,0.12 -0.3,0.24 -0.48,0.3 -0.12,0.12 -0.3,0.18 -0.54,0.18 -0.24,0 -0.48,-0.12 -0.72,-0.24 -0.24,-0.12 -0.42,-0.24 -0.6,-0.48 -0.24,-0.18 -0.36,-0.42 -0.48,-0.6 -0.18,-0.24 -0.24,-0.48 -0.24,-0.66 v -4.86 h -1.26 v 2.76 c -0.06,-0.06 -0.18,-0.12 -0.3,-0.18 -0.06,-0.12 -0.24,-0.18 -0.36,-0.3 l -0.54,-0.18 c -0.18,-0.06 -0.42,-0.12 -0.66,-0.12 -0.48,0 -0.84,0.12 -1.2,0.24 -0.36,0.24 -0.66,0.42 -0.9,0.72 -0.3,0.3 -0.48,0.6 -0.66,0.96 -0.12,0.36 -0.24,0.84 -0.24,1.2 0,0.48 0.12,0.84 0.24,1.2 0.12,0.3 0.3,0.6 0.54,0.9 0.24,0.24 0.54,0.42 0.84,0.6 0.36,0.12 0.66,0.18 1.08,0.18 0.24,0 0.48,-0.06 0.66,-0.12 0.24,0 0.42,-0.12 0.66,-0.24 0.18,-0.06 0.3,-0.18 0.48,-0.24 0.12,-0.12 0.3,-0.24 0.36,-0.3 V 0 H 63.54 V 1.08 H 76.8 Z m -9.36,-2.82 c -0.3,0 -0.48,0 -0.72,-0.18 -0.18,-0.06 -0.42,-0.24 -0.54,-0.36 -0.12,-0.24 -0.24,-0.42 -0.3,-0.66 -0.06,-0.18 -0.06,-0.36 -0.06,-0.6 0,-0.24 0,-0.48 0.06,-0.72 0.12,-0.24 0.18,-0.42 0.42,-0.6 0.12,-0.18 0.3,-0.3 0.54,-0.48 0.18,-0.06 0.42,-0.12 0.66,-0.12 0.24,0 0.42,0.06 0.66,0.12 0.24,0.06 0.48,0.24 0.72,0.42 0.18,0.18 0.3,0.42 0.48,0.72 0.06,0.3 0.18,0.66 0.18,1.02 v 0.36 c -0.12,0.12 -0.24,0.3 -0.42,0.42 -0.18,0.18 -0.3,0.24 -0.48,0.36 -0.24,0.06 -0.42,0.18 -0.6,0.24 -0.18,0.06 -0.42,0.06 -0.6,0.06 M 82.02,0 h -2.94 v -9.66 h -1.2 V 0 H 76.8 v 1.08 h 5.22 z m -3,1.08 h -0.9 l -0.3,0.24 C 77.46,1.62 77.1,1.92 76.86,2.16 76.56,2.4 76.32,2.58 76.08,2.7 75.9,2.88 75.66,3 75.48,3.12 75.36,3.12 75.12,3.18 75,3.24 74.82,3.3 74.7,3.36 74.58,3.36 H 74.1 72.78 v 1.02 h 1.26 c 0.24,0 0.42,0 0.54,-0.06 C 74.82,4.32 75,4.26 75.12,4.2 75.3,4.14 75.48,4.02 75.6,3.9 75.84,3.84 75.96,3.66 76.2,3.54 76.38,3.42 76.62,3.18 76.86,3 77.1,2.76 77.4,2.52 77.64,2.22 l 0.06,0.06 c -0.3,0.42 -0.54,0.84 -0.72,1.14 -0.24,0.36 -0.42,0.66 -0.6,0.84 -0.18,0.24 -0.3,0.42 -0.48,0.6 -0.12,0.12 -0.3,0.3 -0.42,0.36 -0.12,0.06 -0.3,0.12 -0.42,0.18 -0.18,0 -0.3,0.06 -0.48,0.06 H 73.2 v 1.02 h 1.32 c 0.3,0 0.54,0 0.72,-0.06 C 75.48,6.36 75.66,6.24 75.9,6.12 76.08,6 76.26,5.76 76.44,5.52 76.62,5.28 76.86,4.98 77.1,4.62 77.34,4.2 77.64,3.78 77.88,3.24 78.18,2.76 78.48,2.1 78.9,1.38 Z m 7.68,-4.92 c -0.12,0 -0.24,-0.06 -0.3,-0.06 h -0.24 c -0.36,0 -0.78,0.06 -1.02,0.18 -0.3,0.12 -0.6,0.36 -0.84,0.6 -0.18,0.24 -0.42,0.48 -0.48,0.84 -0.18,0.24 -0.24,0.6 -0.24,0.96 0,0.24 0.06,0.48 0.12,0.66 0.12,0.24 0.18,0.48 0.36,0.66 H 82.02 V 1.08 H 95.16 V 0 H 92.28 V -9.66 H 91.02 V 0 h -2.64 c 0.06,-0.12 0.18,-0.24 0.3,-0.48 0.12,-0.12 0.24,-0.3 0.3,-0.54 0.06,-0.24 0.12,-0.42 0.18,-0.66 0.06,-0.18 0.06,-0.42 0.06,-0.66 0,-0.36 -0.06,-0.72 -0.18,-1.08 -0.12,-0.36 -0.3,-0.66 -0.54,-1.02 -0.18,-0.3 -0.42,-0.6 -0.78,-0.84 -0.3,-0.3 -0.54,-0.54 -0.96,-0.72 0.24,-0.18 0.48,-0.42 0.78,-0.72 0.24,-0.24 0.54,-0.48 0.84,-0.78 0.24,-0.3 0.48,-0.6 0.72,-0.9 0.24,-0.24 0.42,-0.54 0.6,-0.72 l -0.78,-0.72 c -0.18,0.18 -0.36,0.42 -0.54,0.72 -0.24,0.24 -0.48,0.54 -0.78,0.84 -0.3,0.3 -0.6,0.54 -0.9,0.84 -0.3,0.36 -0.66,0.6 -1.02,0.84 -0.18,-0.12 -0.3,-0.12 -0.54,-0.18 -0.18,-0.06 -0.36,-0.06 -0.54,-0.06 -0.24,0 -0.48,0.06 -0.66,0.12 -0.18,0 -0.36,0.06 -0.54,0.18 -0.12,0.12 -0.24,0.24 -0.36,0.36 -0.06,0.18 -0.12,0.36 -0.12,0.54 0,0.3 0.12,0.48 0.36,0.72 0.18,0.12 0.48,0.24 0.84,0.24 0.24,0 0.54,-0.06 0.78,-0.18 0.3,-0.06 0.54,-0.24 0.84,-0.42 0.12,0.06 0.24,0.12 0.42,0.18 0.18,0.06 0.36,0.18 0.54,0.3 0.18,0.12 0.36,0.24 0.48,0.42 0.18,0.12 0.3,0.3 0.48,0.54 0.12,0.24 0.24,0.42 0.24,0.66 0.12,0.3 0.18,0.54 0.18,0.84 0,0.24 -0.06,0.54 -0.18,0.78 0,0.3 -0.18,0.54 -0.3,0.78 -0.18,0.24 -0.42,0.42 -0.66,0.54 C 86.7,-0.12 86.4,0 86.16,0 85.86,0 85.62,-0.06 85.5,-0.18 85.32,-0.24 85.14,-0.3 85.08,-0.48 84.96,-0.6 84.9,-0.72 84.84,-0.84 c 0,-0.18 -0.06,-0.36 -0.06,-0.48 0,-0.18 0.06,-0.36 0.06,-0.54 0.12,-0.24 0.24,-0.36 0.3,-0.48 0.18,-0.18 0.36,-0.24 0.54,-0.36 0.24,-0.12 0.42,-0.12 0.72,-0.12 h 0.3 z M 107.4,0 h -3 v -9.66 h -1.2 v 6.78 c -0.24,0.06 -0.48,0.12 -0.72,0.12 -0.18,0 -0.42,-0.06 -0.6,-0.12 -0.12,-0.12 -0.3,-0.18 -0.36,-0.36 -0.18,-0.12 -0.24,-0.3 -0.3,-0.48 -0.06,-0.18 -0.06,-0.36 -0.06,-0.6 V -4.56 -4.8 h -1.08 c -0.06,0.3 -0.06,0.54 -0.12,0.78 -0.06,0.24 -0.18,0.48 -0.18,0.72 -0.12,0.18 -0.3,0.3 -0.42,0.42 -0.12,0.12 -0.36,0.18 -0.6,0.18 -0.18,0 -0.36,-0.06 -0.54,-0.12 -0.18,-0.12 -0.3,-0.24 -0.42,-0.42 -0.06,-0.12 -0.18,-0.36 -0.24,-0.6 -0.06,-0.18 -0.06,-0.42 -0.06,-0.66 0,-0.54 0.12,-1.02 0.24,-1.44 0.24,-0.48 0.54,-0.84 0.78,-1.2 0.36,-0.36 0.72,-0.66 1.14,-0.9 0.36,-0.3 0.84,-0.54 1.32,-0.78 l -0.6,-1.02 c -0.12,0.06 -0.36,0.24 -0.6,0.36 -0.3,0.18 -0.6,0.36 -0.9,0.6 -0.36,0.18 -0.6,0.48 -0.9,0.78 -0.3,0.3 -0.6,0.6 -0.84,1.02 -0.24,0.36 -0.42,0.78 -0.66,1.2 -0.12,0.48 -0.18,0.96 -0.18,1.5 0,0.42 0.06,0.78 0.12,1.08 0.18,0.42 0.3,0.72 0.54,0.96 0.24,0.24 0.48,0.42 0.78,0.54 0.3,0.18 0.6,0.24 0.96,0.24 0.3,0 0.54,0 0.78,-0.06 0.18,-0.12 0.36,-0.18 0.54,-0.36 0.12,-0.12 0.24,-0.24 0.3,-0.3 0.12,-0.18 0.18,-0.3 0.24,-0.42 h 0.06 c 0.12,0.18 0.18,0.42 0.36,0.48 0.06,0.12 0.24,0.3 0.36,0.36 0.18,0.06 0.36,0.12 0.48,0.18 0.24,0.06 0.36,0.12 0.54,0.12 0.18,0 0.3,-0.06 0.48,-0.06 0.12,-0.06 0.24,-0.12 0.36,-0.18 V 0 h -8.04 v 1.08 h 12.24 z m 10.08,0 h -1.5 v -9.66 h -1.2 v 4.02 h -3.96 v -0.78 -0.42 c -0.06,-0.12 -0.06,-0.24 -0.12,-0.3 -0.06,-0.06 -0.12,-0.12 -0.12,-0.18 -0.12,-0.06 -0.24,-0.06 -0.36,-0.06 -0.12,0 -0.24,0.06 -0.42,0.12 -0.12,0.06 -0.3,0.18 -0.48,0.3 -0.12,0.12 -0.3,0.24 -0.42,0.42 -0.12,0.18 -0.3,0.36 -0.36,0.54 -0.18,0.12 -0.24,0.36 -0.3,0.48 -0.12,0.18 -0.18,0.36 -0.18,0.48 0,0.12 0.06,0.18 0.12,0.24 0,0.06 0.06,0.12 0.12,0.18 0.06,0 0.18,0 0.24,0.06 h 0.3 0.78 V 0 h -2.22 v 1.08 h 10.08 z m -6.66,-4.56 h 3.96 V 0 h -3.96 z m 7.26,-8.64 -2.88,2.7 -0.42,0.84 h 1.2 l 2.82,-2.7 z" /></g><g
           transform="translate(409.6,79.02)"
           id="g28"><path
             id="path30"
             style="fill:#1b1918;fill-opacity:1;fill-rule:evenodd;stroke:none"
             d="m 0,0 v -18.18 h 7.5 c 1.5,0 2.94,0.18 4.32,0.66 1.26,0.42 2.34,1.08 3.3,1.92 0.96,0.84 1.62,1.86 2.16,3 0.54,1.26 0.72,2.64 0.72,4.02 0,2.46 -0.66,4.62 -2.52,6.24 C 13.44,-0.48 10.56,0 7.86,0 Z m 163.74,-26.16 v -18.96 h -5.88 v 18.84 l -15.9,31.8 h 6.6 l 11.52,-23.46 c 0.18,-0.42 0.36,-0.84 0.54,-1.26 0.12,-0.24 0.18,-0.48 0.3,-0.72 0,0 0,0.06 0.06,0.12 0.3,0.6 0.6,1.26 0.9,1.86 l 12,23.46 h 6.36 z M 120.06,0 v -45.12 h -5.88 V 0 H 99.96 v 5.52 h 34.32 V 0 Z M 87.72,-45.12 H 81.84 V 5.52 h 5.88 z m -37.2,-0.84 c -0.96,0 -1.92,0.06 -2.82,0.18 -1.14,0.12 -2.22,0.3 -3.36,0.54 -1.08,0.24 -2.16,0.54 -3.18,0.9 -0.9,0.3 -1.8,0.66 -2.58,1.14 l -0.3,0.18 V -36 l 1.02,-0.78 c 0.84,-0.6 1.74,-1.14 2.64,-1.56 0.96,-0.48 1.98,-0.9 2.94,-1.2 1.02,-0.36 2.04,-0.6 3.06,-0.78 0.96,-0.12 1.98,-0.24 2.94,-0.24 2.64,0 5.82,0.36 7.98,2.04 1.86,1.44 2.52,3.42 2.52,5.7 0,1.08 -0.12,2.22 -0.6,3.18 -0.42,0.96 -1.08,1.8 -1.86,2.52 -1.02,0.96 -2.16,1.74 -3.36,2.46 -1.62,0.96 -3.3,1.92 -4.92,2.82 -1.86,1.02 -3.72,2.1 -5.46,3.3 -1.38,0.9 -2.7,1.98 -3.84,3.24 -0.96,1.08 -1.74,2.28 -2.22,3.66 -0.48,1.44 -0.72,2.94 -0.72,4.44 0,2.04 0.42,3.96 1.38,5.7 0.9,1.68 2.1,3.06 3.6,4.26 1.56,1.2 3.36,2.1 5.28,2.64 2.1,0.66 4.2,0.96 6.42,0.96 3.3,0 6.84,-0.42 9.96,-1.68 L 65.46,4.5 v -6.6 l -0.96,0.6 c -3.06,1.74 -6.48,2.4 -9.96,2.4 -1.32,0 -2.7,-0.12 -3.96,-0.48 -1.14,-0.36 -2.22,-0.84 -3.18,-1.5 -0.9,-0.66 -1.62,-1.44 -2.16,-2.34 -0.54,-1.02 -0.72,-2.16 -0.72,-3.3 0,-1.02 0.12,-2.1 0.48,-3.06 0.36,-0.9 1.02,-1.74 1.68,-2.4 0.96,-0.96 2.04,-1.74 3.18,-2.4 1.68,-0.96 3.3,-1.86 4.98,-2.76 1.86,-1.02 3.72,-2.1 5.46,-3.3 1.44,-0.96 2.82,-2.04 3.96,-3.36 1.02,-1.14 1.86,-2.4 2.4,-3.78 0.6,-1.44 0.84,-3 0.84,-4.5 0,-2.1 -0.36,-4.14 -1.26,-6 -0.84,-1.74 -2.04,-3.18 -3.6,-4.32 -1.62,-1.2 -3.42,-2.04 -5.34,-2.52 -2.22,-0.6 -4.5,-0.84 -6.78,-0.84 M 0,-23.64 V -45.12 H -5.88 V 5.52 H 8.94 c 1.92,0 3.78,-0.3 5.58,-0.9 1.8,-0.54 3.42,-1.38 4.86,-2.52 1.44,-1.2 2.58,-2.64 3.42,-4.26 0.9,-1.86 1.26,-3.9 1.26,-6 0,-1.68 -0.24,-3.42 -0.78,-5.04 -0.54,-1.5 -1.32,-2.88 -2.4,-4.08 -1.02,-1.2 -2.28,-2.22 -3.72,-3 -1.08,-0.66 -2.22,-1.14 -3.42,-1.5 0.24,-0.12 0.42,-0.3 0.66,-0.42 0.6,-0.54 1.14,-1.08 1.68,-1.68 0.6,-0.72 1.08,-1.44 1.56,-2.22 0.6,-0.9 1.14,-1.86 1.62,-2.82 l 8.76,-16.2 h -6.78 l -7.62,14.46 c -0.6,1.2 -1.32,2.4 -2.1,3.48 -0.54,0.78 -1.2,1.5 -1.98,2.1 -0.66,0.48 -1.38,0.9 -2.16,1.08 -0.84,0.24 -1.74,0.36 -2.64,0.36 z M -40.92,0 v -16.8 h 18.06 v -5.4 h -18.06 v -17.52 h 20.58 v -5.4 h -26.4 V 5.52 h 25.32 V 0 Z M -79.8,-36.48 c 0.24,0.72 0.48,1.44 0.72,2.16 l 14.7,39.84 h 6.36 l -19.26,-50.64 h -5.34 l -18.42,50.64 h 6.48 l 14.16,-39.9 c 0.24,-0.66 0.42,-1.38 0.6,-2.1 m -32.52,-8.64 h -5.88 V 5.52 h 5.88 z m -56.76,40.86 v -1.98 -38.88 h -5.88 V 5.52 h 6.06 l 27.12,-39.42 c 0.3,-0.42 0.54,-0.84 0.84,-1.26 v 0.18 c -0.06,1.02 -0.06,2.1 -0.06,3.12 V 5.52 h 5.88 v -50.64 h -5.7 l -27.6,39.9 c -0.24,0.3 -0.48,0.66 -0.66,0.96 m -22.14,-20.4 c 0,-12.84 -5.28,-21.3 -18.84,-21.3 -13.08,0 -18,8.28 -18,20.52 V 5.52 h 5.88 v -30.54 c 0,-3.9 0.54,-8.58 3.12,-11.76 2.4,-2.88 6,-3.78 9.6,-3.78 9.48,0 12.36,6.48 12.36,15.06 V 5.52 h 5.88 z" /></g><g
           transform="translate(589.54,106.3198)"
           id="g32"><path
             id="path34"
             style="fill:#1b1918;fill-opacity:1;fill-rule:evenodd;stroke:none"
             d="m 0,0 h -16.86 v 30.42 c 0,8.52 -3,12.72 -9.06,12.72 -2.94,0 -5.34,-1.08 -7.2,-3.36 C -35.04,37.56 -36,34.68 -36,31.26 V 0 H -52.86 V 54.78 H -36 v -8.7 h 0.24 c 4.02,6.66 9.9,10.02 17.58,10.02 C -6.06,56.1 0,48.6 0,33.54 Z m -82.08,22.26 v 3.66 l -9.96,-1.26 c -5.52,-0.72 -8.22,-3.18 -8.22,-7.44 0,-1.92 0.66,-3.48 1.98,-4.74 1.32,-1.2 3.18,-1.8 5.46,-1.8 3.12,0 5.7,1.08 7.74,3.24 1.98,2.22 3,4.98 3,8.34 M -66.24,0 H -82.2 v 7.86 h -0.24 c -3.66,-6.12 -9.12,-9.18 -16.32,-9.18 -5.28,0 -9.48,1.5 -12.54,4.5 -3,3 -4.56,7.08 -4.56,12.06 0,10.62 6.3,16.74 18.9,18.42 l 14.88,1.98 c 0,5.94 -3.3,8.94 -9.78,8.94 -6.48,0 -12.72,-1.92 -18.6,-5.82 v 12.72 c 2.4,1.26 5.58,2.28 9.66,3.24 4.08,0.9 7.8,1.38 11.16,1.38 15.6,0 23.4,-7.8 23.4,-23.34 z m -58.86,0 h -16.86 v 31.14 c 0,8.04 -2.94,12 -8.76,12 -3,0 -5.46,-1.08 -7.26,-3.36 -1.86,-2.22 -2.82,-5.1 -2.82,-8.52 V 0 h -16.86 v 76.68 h 16.86 V 46.62 h 0.24 c 4.14,6.3 9.72,9.48 16.8,9.48 12.42,0 18.66,-7.5 18.66,-22.44 z m -104.34,1.44 v 13.68 c 2.82,-1.68 5.58,-2.88 8.34,-3.72 2.76,-0.84 5.34,-1.2 7.8,-1.2 3,0 5.4,0.36 7.08,1.2 1.74,0.84 2.58,2.04 2.58,3.72 0,1.08 -0.36,1.98 -1.14,2.7 -0.78,0.72 -1.8,1.32 -3.06,1.86 -1.2,0.54 -2.52,1.02 -4.02,1.44 -1.44,0.48 -2.82,0.9 -4.2,1.44 -2.16,0.84 -4.08,1.74 -5.76,2.64 -1.62,0.96 -3.06,2.04 -4.14,3.3 -1.14,1.26 -1.98,2.7 -2.58,4.32 -0.6,1.68 -0.9,3.6 -0.9,5.82 0,3.12 0.66,5.76 2.04,7.92 1.32,2.22 3.12,4.02 5.34,5.46 2.22,1.38 4.74,2.4 7.62,3.06 2.88,0.66 5.88,1.02 8.94,1.02 2.46,0 4.92,-0.18 7.38,-0.6 2.52,-0.36 4.98,-0.9 7.38,-1.62 V 40.86 c -2.1,1.26 -4.38,2.16 -6.84,2.82 -2.46,0.6 -4.86,0.9 -7.2,0.9 -1.14,0 -2.16,-0.06 -3.12,-0.3 -0.96,-0.18 -1.86,-0.48 -2.64,-0.84 -0.72,-0.36 -1.32,-0.84 -1.74,-1.44 -0.42,-0.6 -0.6,-1.26 -0.6,-1.98 0,-1.02 0.3,-1.86 0.9,-2.58 0.66,-0.72 1.5,-1.32 2.52,-1.86 1.08,-0.48 2.22,-0.96 3.48,-1.38 1.26,-0.42 2.52,-0.84 3.78,-1.26 2.22,-0.78 4.26,-1.62 6.06,-2.58 1.86,-0.9 3.42,-1.98 4.68,-3.24 1.32,-1.26 2.34,-2.7 3,-4.38 0.72,-1.68 1.02,-3.66 1.02,-6 0,-3.24 -0.66,-6 -2.1,-8.28 -1.38,-2.34 -3.24,-4.2 -5.58,-5.64 -2.34,-1.44 -5.04,-2.46 -8.1,-3.12 -3.06,-0.66 -6.18,-1.02 -9.48,-1.02 -6,0 -11.58,0.96 -16.74,2.76 m -4.98,38.1 c -2.1,1.08 -4.44,1.62 -7.14,1.62 -3.66,0 -6.54,-1.32 -8.64,-4.02 -2.04,-2.7 -3.06,-6.36 -3.06,-10.98 V 0 h -16.92 v 54.78 h 16.92 v -10.2 h 0.18 c 2.7,7.44 7.5,11.16 14.46,11.16 1.8,0 3.18,-0.24 4.2,-0.66 z M -299.4,22.26 v 3.66 l -9.96,-1.26 c -5.46,-0.72 -8.22,-3.18 -8.22,-7.44 0,-1.92 0.66,-3.48 1.98,-4.74 1.38,-1.2 3.18,-1.8 5.46,-1.8 3.18,0 5.76,1.08 7.74,3.24 1.98,2.22 3,4.98 3,8.34 M -283.5,0 h -16.02 v 7.86 h -0.18 c -3.72,-6.12 -9.12,-9.18 -16.32,-9.18 -5.34,0 -9.48,1.5 -12.54,4.5 -3.06,3 -4.56,7.08 -4.56,12.06 0,10.62 6.3,16.74 18.84,18.42 l 14.88,1.98 c 0,5.94 -3.24,8.94 -9.72,8.94 -6.54,0 -12.72,-1.92 -18.6,-5.82 v 12.72 c 2.34,1.26 5.58,2.28 9.66,3.24 4.02,0.9 7.74,1.38 11.1,1.38 15.6,0 23.46,-7.8 23.46,-23.34 z m -107.34,62.64 v -48.6 h 8.52 c 7.5,0 13.38,2.22 17.64,6.72 4.26,4.5 6.36,10.62 6.36,18.36 0,7.26 -2.1,13.02 -6.3,17.22 -4.26,4.2 -10.14,6.3 -17.82,6.3 z M -408.12,0 V 76.68 H -381 c 27.24,0 40.86,-12.48 40.86,-37.38 0,-11.94 -3.72,-21.48 -11.16,-28.56 C -358.74,3.6 -368.58,0 -381,0 Z" /></g></g></g></g></svg>